<?xml version="1.0" encoding="UTF-8"?>
<svg id="Camada_2" data-name="Camada 2" xmlns="http://www.w3.org/2000/svg" viewBox="0 0 504.47 506">
  <defs>
    <style>
      .cls-1 {
        fill: #a6a0a0;
        stroke-width: 0px;
      }
    </style>
  </defs>
  <g id="Camada_1-2" data-name="Camada 1">
    <g>
      <path class="cls-1" d="m252.24,199.5c29.5,0,53.5,24,53.5,53.5s-24,53.5-53.5,53.5-53.5-24-53.5-53.5,24-53.5,53.5-53.5m0-9c-34.46,0-62.5,28.04-62.5,62.5s28.04,62.5,62.5,62.5,62.5-28.04,62.5-62.5-28.04-62.5-62.5-62.5h0Z"/>
      <path class="cls-1" d="m252.24,214.5c21.23,0,38.5,17.27,38.5,38.5s-17.27,38.5-38.5,38.5-38.5-17.27-38.5-38.5,17.27-38.5,38.5-38.5m0-9c-26.23,0-47.5,21.27-47.5,47.5s21.27,47.5,47.5,47.5,47.5-21.27,47.5-47.5-21.27-47.5-47.5-47.5h0Z"/>
      <path class="cls-1" d="m252.24,9c61.77,0,120.7,23.13,165.95,65.12,42.6,39.55,69.47,92.37,76.31,149.63h-155.55c-12.45-36.99-47.15-62.25-86.7-62.25s-74.25,25.27-86.7,62.25H9.98c6.84-57.26,33.71-110.08,76.31-149.63C131.53,32.13,190.47,9,252.24,9m0-9C119.33,0,10.36,102.49.04,232.75h172.21c9.05-35.73,41.47-62.25,79.98-62.25s70.93,26.52,79.98,62.25h172.21C494.11,102.49,385.15,0,252.24,0h0Z"/>
      <path class="cls-1" d="m494.56,281.75c-6.73,57.37-33.56,110.32-76.2,149.97-45.27,42.1-104.26,65.28-166.12,65.28s-120.85-23.18-166.12-65.28c-42.64-39.65-69.47-92.6-76.2-149.97h155.46c12.3,37.28,47.06,62.75,86.86,62.75s74.56-25.47,86.86-62.75h155.46m9.92-9h-172.14c-8.88,35.98-41.41,62.75-80.09,62.75s-71.22-26.77-80.09-62.75H0c10.08,130.5,119.16,233.25,252.24,233.25s242.16-102.75,252.24-233.25h0Z"/>
    </g>
  </g>
</svg>