<?xml version="1.0" encoding="UTF-8"?>
<svg id="Camada_2" data-name="Camada 2" xmlns="http://www.w3.org/2000/svg" viewBox="0 0 408.62 127.25">
  <defs>
    <style>
      .cls-1 {
        fill: #a6a0a0;
        stroke-width: 0px;
      }
    </style>
  </defs>
  <g id="Camada_1-2" data-name="Camada 1">
    <g>
      <path class="cls-1" d="m0,28.15c4.14-1.37,8.02-2.63,11.66-3.79,3.64-1.16,7.48-2.26,11.51-3.31,4.03-1.04,7.9-1.87,11.59-2.49,2.84-.48,5.74-.72,8.72-.72,4.96,0,8.2.14,9.74.41,2.32.45,4.52,1.16,6.59,2.15,2.07.99,3.91,2.32,5.54,3.97,1.62,1.66,2.95,3.61,3.97,5.87.41.92.62,1.9.62,2.92,0,3.83-2.09,8.54-6.28,14.15-4.19,5.61-8.39,10.49-12.61,14.66-4.22,4.17-7.38,7.16-9.46,8.97l9.23,32.35-13.43,9.69L13.84,45.78c-.07,0-.39.33-.97.97-.58.65-1.34,1.5-2.28,2.54-.94,1.04-1.53,1.68-1.77,1.92-.1,0-.44-.73-1-2.21-.56-1.47-1.32-3.51-2.26-6.13-.94-2.61-2-5.52-3.18-8.72-1.18-3.2-1.97-5.2-2.38-6.02Zm33.17,14.25l4.2,15.12c2.12-2.15,4.75-5.09,7.9-8.82s4.72-6.42,4.72-8.1c0-.65-.27-1.03-.82-1.13-1.54-.34-3.06-.51-4.56-.51-4.51,0-8.32,1.15-11.43,3.44Z"/>
      <path class="cls-1" d="m108.43,54.09c2.43,1.3,4.4,3.05,5.92,5.25,1.52,2.2,2.63,4.68,3.33,7.43.7,2.75,1.05,5.61,1.05,8.59,0,2.46-.2,4.84-.59,7.13-.39,2.29-.93,4.39-1.62,6.31s-1.49,3.54-2.41,4.87c-2.15,3.21-4.46,5.98-6.92,8.3-2.46,2.33-4.97,4.2-7.54,5.61-2.56,1.42-5.1,2.46-7.61,3.13-2.51.67-5,1-7.46,1-2.91,0-5.67-.45-8.28-1.36-2.61-.9-4.84-2.09-6.69-3.56-3.04-2.53-5.42-5.94-7.13-10.23-1.71-4.29-2.56-8.83-2.56-13.61,0-8.24,2.38-14.88,7.13-19.94,4.07-4.34,8.27-7.61,12.61-9.82,4.34-2.21,8.78-3.31,13.33-3.31,2.67,0,5.23.33,7.69,1,2.46.67,5.04,1.74,7.74,3.21Zm-3.02,8.61c-.58,2.6-1.84,4.89-3.77,6.87-1.93,1.98-3.82,2.97-5.67,2.97-.92,0-1.74-.24-2.46-.72-1.03-.82-1.54-2.26-1.54-4.31,0-1.57.52-3.13,1.56-4.67,1.04-1.54,2.69-2.75,4.95-3.64-2.26,0-4.43.43-6.54,1.28-2.1.86-3.91,1.96-5.41,3.31-1.5,1.35-2.71,2.87-3.61,4.56-.91,1.69-1.36,3.39-1.36,5.1,0,3.18,1.47,5.71,4.41,7.59,2.73,1.74,5.33,2.62,7.79,2.62s4.58-.81,6.46-2.44c1.88-1.62,3.32-3.71,4.31-6.25.99-2.55,1.49-5.07,1.49-7.56,0-1.71-.21-3.28-.62-4.72Z"/>
      <path class="cls-1" d="m110.23,23.94l26.04-10.92,3.79,59.22,21.43-11.74,22.25,3.33-29.02,22.25,27.33,20.61,1.23,20.56-40.3-28.97,1.28,25.17-24.4.46-4.61-89.05-7.54,1.69,2.51-12.61Z"/>
      <path class="cls-1" d="m219.43,81.26l12.36,14.92c-.99,2.87-3.34,5.5-7.05,7.9-3.71,2.39-8.12,4.28-13.23,5.67-5.11,1.38-10.21,2.08-15.3,2.08-4.51,0-8.54-.6-12.07-1.79-3.54-1.2-6.26-3.01-8.18-5.43-3.32-4.17-4.97-9.5-4.97-16,0-5.13.93-10.18,2.79-15.15,1.86-4.97,3.84-8.45,5.92-10.43,2.5-2.36,5.2-4.32,8.13-5.9,2.92-1.57,5.96-2.75,9.1-3.54,3.14-.79,6.37-1.18,9.69-1.18,4.34,0,8.47.69,12.38,2.08,3.91,1.38,7.34,3.39,10.28,6.02l-28.15,33.58c2.5,0,4.86-.52,7.1-1.56,2.24-1.04,4.3-2.53,6.18-4.46,1.88-1.93,3.55-4.2,5.02-6.79Zm-14.2-11.95c-1.67-.85-3.38-1.28-5.13-1.28-1.85,0-3.63.38-5.36,1.13-1.73.75-2.95,1.64-3.67,2.67-2.12,2.74-3.18,5.74-3.18,9.02,0,1.2.12,2.34.36,3.44.24,1.09.65,2.6,1.23,4.51l15.74-19.48Z"/>
      <path class="cls-1" d="m258.24,9.64l21.43-9.64,1.28,69.42c.27,1.78.41,3.79.41,6.05,0,1.98-.07,3.45-.21,4.41l.62,31.43-23.07,1.23v-3.13c-3.76,1.54-7.55,2.31-11.38,2.31-2.94,0-5.7-.45-8.28-1.33-2.58-.89-4.81-2.08-6.69-3.59-3.04-2.53-5.42-5.94-7.13-10.23-1.71-4.29-2.56-8.83-2.56-13.61,0-8.24,2.38-14.88,7.13-19.94,4.1-4.31,8.33-7.57,12.69-9.79,4.36-2.22,8.81-3.33,13.36-3.33,1.26,0,2.22.04,2.87.1l-.46-40.35Zm.46,49.78c-1.88.24-3.74.84-5.56,1.79-1.83.96-3.39,2.08-4.69,3.38-1.3,1.3-2.32,2.73-3.05,4.28-.74,1.56-1.1,3.08-1.1,4.59,0,3.11,1.47,5.64,4.41,7.59,2.6,1.74,5.23,2.62,7.9,2.62.51,0,1.21-.07,2.1-.21v-10.92c-.92,0-1.74-.24-2.46-.72-1.03-.82-1.54-2.39-1.54-4.72,0-3.35,1.33-5.91,4-7.69Z"/>
      <path class="cls-1" d="m324.43,81.26l12.36,14.92c-.99,2.87-3.34,5.5-7.05,7.9-3.71,2.39-8.12,4.28-13.23,5.67-5.11,1.38-10.21,2.08-15.3,2.08-4.51,0-8.54-.6-12.07-1.79-3.54-1.2-6.26-3.01-8.18-5.43-3.32-4.17-4.97-9.5-4.97-16,0-5.13.93-10.18,2.79-15.15,1.86-4.97,3.84-8.45,5.92-10.43,2.5-2.36,5.2-4.32,8.13-5.9,2.92-1.57,5.96-2.75,9.1-3.54,3.14-.79,6.37-1.18,9.69-1.18,4.34,0,8.47.69,12.38,2.08,3.91,1.38,7.34,3.39,10.28,6.02l-28.15,33.58c2.5,0,4.86-.52,7.1-1.56,2.24-1.04,4.3-2.53,6.18-4.46,1.88-1.93,3.55-4.2,5.02-6.79Zm-14.2-11.95c-1.67-.85-3.38-1.28-5.13-1.28-1.85,0-3.63.38-5.36,1.13-1.73.75-2.95,1.64-3.67,2.67-2.12,2.74-3.18,5.74-3.18,9.02,0,1.2.12,2.34.36,3.44.24,1.09.65,2.6,1.23,4.51l15.74-19.48Z"/>
      <path class="cls-1" d="m366.42,99.87l-12.41,16.05-26.46.82,25.63-33.89-28.97-37.48,28.1,1.23,14.1,18.61,14.05-18.61,28.15-1.23-28.97,37.48,25.63,33.89-26.51-.82-12.36-16.05Z"/>
    </g>
  </g>
</svg>