<?xml version="1.0" encoding="UTF-8"?>
<svg id="Camada_2" data-name="Camada 2" xmlns="http://www.w3.org/2000/svg" viewBox="0 0 447.53 139.37">
  <defs>
    <style>
      .cls-1 {
        fill: #a6a0a0;
        stroke-width: 0px;
      }
    </style>
  </defs>
  <g id="Camada_1-2" data-name="Camada 1">
    <g>
      <path class="cls-1" d="m0,30.83c4.53-1.5,8.79-2.88,12.77-4.15,3.99-1.27,8.19-2.48,12.61-3.62,4.42-1.14,8.65-2.05,12.69-2.72,3.11-.52,6.29-.79,9.55-.79,5.43,0,8.98.15,10.67.45,2.55.49,4.95,1.27,7.22,2.36,2.26,1.09,4.29,2.54,6.06,4.35,1.78,1.82,3.23,3.96,4.35,6.43.45,1.01.67,2.08.67,3.2,0,4.19-2.29,9.36-6.88,15.5s-9.19,11.49-13.81,16.06c-4.62,4.57-8.08,7.84-10.36,9.83l10.11,35.43-14.71,10.61L15.16,50.14c-.08,0-.43.36-1.07,1.07-.64.71-1.47,1.64-2.5,2.78-1.03,1.14-1.68,1.84-1.94,2.11-.11,0-.48-.8-1.09-2.42-.62-1.61-1.44-3.85-2.47-6.71-1.03-2.86-2.19-6.04-3.48-9.55-1.29-3.5-2.16-5.7-2.61-6.6Zm36.33,15.61l4.61,16.56c2.32-2.36,5.2-5.58,8.65-9.66s5.17-7.04,5.17-8.87c0-.71-.3-1.12-.9-1.24-1.68-.37-3.35-.56-5-.56-4.94,0-9.12,1.25-12.52,3.76Z"/>
      <path class="cls-1" d="m118.76,59.24c2.66,1.42,4.82,3.34,6.49,5.75,1.67,2.42,2.88,5.13,3.65,8.14.77,3.01,1.15,6.15,1.15,9.41,0,2.7-.22,5.3-.65,7.8-.43,2.51-1.02,4.81-1.77,6.91-.75,2.1-1.63,3.87-2.64,5.33-2.36,3.52-4.89,6.55-7.58,9.1-2.7,2.55-5.45,4.6-8.25,6.15s-5.59,2.7-8.34,3.42c-2.75.73-5.47,1.1-8.17,1.1-3.18,0-6.21-.5-9.07-1.49-2.86-.99-5.31-2.29-7.33-3.9-3.33-2.77-5.93-6.5-7.81-11.2-1.87-4.7-2.81-9.67-2.81-14.91,0-9.02,2.6-16.3,7.8-21.84,4.46-4.75,9.06-8.34,13.81-10.75,4.75-2.41,9.62-3.62,14.6-3.62,2.92,0,5.73.37,8.42,1.1,2.7.73,5.52,1.9,8.48,3.51Zm-3.31,9.43c-.64,2.84-2.01,5.35-4.13,7.52-2.12,2.17-4.18,3.26-6.21,3.26-1.01,0-1.91-.26-2.7-.79-1.12-.9-1.68-2.47-1.68-4.72,0-1.72.57-3.42,1.71-5.11,1.14-1.68,2.95-3.01,5.42-3.99-2.47,0-4.86.47-7.16,1.4-2.3.94-4.28,2.14-5.92,3.62-1.65,1.48-2.97,3.14-3.96,5-.99,1.85-1.49,3.72-1.49,5.59,0,3.48,1.61,6.25,4.83,8.31,2.99,1.91,5.84,2.86,8.54,2.86s5.02-.89,7.07-2.67c2.06-1.78,3.63-4.06,4.72-6.85,1.09-2.79,1.63-5.55,1.63-8.28,0-1.87-.22-3.59-.67-5.17Z"/>
      <path class="cls-1" d="m120.73,26.22l28.53-11.96,4.16,64.86,23.47-12.86,24.37,3.65-31.78,24.37,29.93,22.57,1.35,22.52-44.13-31.73,1.4,27.57-26.73.5-5.05-97.54-8.25,1.85,2.75-13.81Z"/>
      <path class="cls-1" d="m240.33,89l13.53,16.34c-1.09,3.14-3.66,6.03-7.72,8.65-4.06,2.62-8.89,4.69-14.49,6.21-5.6,1.52-11.18,2.27-16.76,2.27-4.94,0-9.35-.65-13.22-1.96-3.87-1.31-6.86-3.29-8.96-5.95-3.63-4.57-5.45-10.41-5.45-17.52,0-5.62,1.02-11.15,3.06-16.59,2.04-5.45,4.2-9.26,6.49-11.43,2.73-2.58,5.7-4.73,8.9-6.46,3.2-1.72,6.52-3.01,9.97-3.88,3.44-.86,6.98-1.29,10.61-1.29,4.75,0,9.27.76,13.56,2.27,4.29,1.52,8.04,3.72,11.26,6.6l-30.83,36.78c2.73,0,5.32-.57,7.78-1.71,2.45-1.14,4.71-2.77,6.77-4.89,2.06-2.11,3.89-4.59,5.5-7.44Zm-44.42-53.57l29.93-16.57,12.86,19.77-36.33,6.91-6.46-10.11Zm28.86,40.49c-1.83-.93-3.71-1.4-5.62-1.4-2.02,0-3.98.41-5.87,1.23-1.89.82-3.23,1.8-4.01,2.92-2.32,3-3.48,6.29-3.48,9.88,0,1.31.13,2.56.39,3.76.26,1.2.71,2.84,1.35,4.94l17.24-21.34Z"/>
      <path class="cls-1" d="m282.84,10.56l23.47-10.56,1.4,76.03c.3,1.95.45,4.16.45,6.63,0,2.17-.08,3.78-.22,4.83l.67,34.42-25.27,1.35v-3.43c-4.12,1.68-8.27,2.53-12.47,2.53-3.22,0-6.24-.49-9.07-1.46-2.83-.97-5.27-2.28-7.33-3.93-3.33-2.77-5.93-6.5-7.81-11.2-1.87-4.7-2.81-9.67-2.81-14.91,0-9.02,2.6-16.3,7.8-21.84,4.49-4.72,9.12-8.29,13.9-10.72,4.77-2.43,9.65-3.65,14.63-3.65,1.38,0,2.43.04,3.14.11l-.51-44.19Zm.51,54.52c-2.06.26-4.09.92-6.09,1.96-2,1.05-3.72,2.28-5.14,3.71-1.42,1.42-2.54,2.99-3.34,4.69-.81,1.7-1.21,3.38-1.21,5.03,0,3.41,1.61,6.18,4.83,8.31,2.84,1.91,5.73,2.86,8.65,2.86.56,0,1.33-.08,2.3-.22v-11.96c-1.01,0-1.91-.26-2.7-.79-1.12-.9-1.68-2.62-1.68-5.17,0-3.67,1.46-6.48,4.38-8.42Z"/>
      <path class="cls-1" d="m355.33,89l13.53,16.34c-1.09,3.14-3.66,6.03-7.72,8.65-4.06,2.62-8.89,4.69-14.49,6.21-5.6,1.52-11.18,2.27-16.76,2.27-4.94,0-9.35-.65-13.22-1.96-3.87-1.31-6.86-3.29-8.96-5.95-3.63-4.57-5.45-10.41-5.45-17.52,0-5.62,1.02-11.15,3.06-16.59,2.04-5.45,4.2-9.26,6.49-11.43,2.73-2.58,5.7-4.73,8.9-6.46,3.2-1.72,6.52-3.01,9.97-3.88,3.44-.86,6.98-1.29,10.61-1.29,4.75,0,9.27.76,13.56,2.27,4.29,1.52,8.04,3.72,11.26,6.6l-30.83,36.78c2.73,0,5.32-.57,7.78-1.71,2.45-1.14,4.71-2.77,6.77-4.89,2.06-2.11,3.89-4.59,5.5-7.44Zm-15.55-13.08c-1.83-.93-3.71-1.4-5.62-1.4-2.02,0-3.98.41-5.87,1.23-1.89.82-3.23,1.8-4.01,2.92-2.32,3-3.48,6.29-3.48,9.88,0,1.31.13,2.56.39,3.76.26,1.2.71,2.84,1.35,4.94l17.24-21.34Z"/>
      <path class="cls-1" d="m401.32,109.38l-13.59,17.58-28.97.9,28.08-37.12-31.73-41.05,30.77,1.35,15.44,20.38,15.38-20.38,30.83-1.35-31.73,41.05,28.08,37.12-29.03-.9-13.53-17.58Z"/>
    </g>
  </g>
</svg>